<svg xmlns="http://www.w3.org/2000/svg" xmlns:xlink="http://www.w3.org/1999/xlink" version="1.1" width="48px" height="48px" viewBox="-0.5 -0.5 48 48"><defs/><g><path d="M 23.85 7.15 L 23.85 40.54" fill="none" stroke="#6c8ebf" stroke-width="5.96" stroke-miterlimit="10" pointer-events="stroke"/><ellipse cx="23.85" cy="5.96" rx="1.1924" ry="1.1924" fill="#6c8ebf" stroke="#6c8ebf" stroke-width="5.96" pointer-events="all"/><ellipse cx="23.85" cy="41.73" rx="1.1924" ry="1.1924" fill="#6c8ebf" stroke="#6c8ebf" stroke-width="5.96" pointer-events="all"/><path d="M 23.85 5.96 L 41.73 16.14 L 41.73 31.56 L 23.85 41.73 L 5.96 31.56 L 5.96 16.14 Z" fill="#dae8fc" stroke="#6c8ebf" stroke-width="4.47" stroke-miterlimit="10" pointer-events="all"/><path d="M 5.96 16.14 L 23.85 26.31 L 41.73 16.14 M 23.85 26.31 L 23.85 41.73" fill="none" stroke="#6c8ebf" stroke-width="4.47" stroke-miterlimit="10" pointer-events="all"/><path d="M 5.96 31.6 L 5.96 17.89 Q 5.96 14.9 8.44 16.56 L 21.37 25.18 Q 23.85 26.83 26.33 25.18 L 39.25 16.56 Q 41.73 14.9 41.73 17.89 L 41.73 31.6" fill="none" stroke="#9673a6" stroke-width="5.96" stroke-miterlimit="10" pointer-events="stroke"/><ellipse cx="5.96" cy="32.79" rx="1.1924" ry="1.1924" fill="#9673a6" stroke="#9673a6" stroke-width="5.96" pointer-events="all"/><ellipse cx="41.73" cy="32.79" rx="1.1924" ry="1.1924" fill="#9673a6" stroke="#9673a6" stroke-width="5.96" pointer-events="all"/></g></svg>